<svg xmlns="http://www.w3.org/2000/svg" xml:space="preserve" id="Camada_1" x="0" y="0" style="enable-background:new 0 0 279.11 67.11" version="1.1" viewBox="0 0 279.11 67.11"><style>.st0{font-family:&quot;NeulisNeue-Light&quot;}.st1{font-size:14.2309px}</style><path d="M30.28 27.16c-5.82-2.21-7.4-4.24-7.4-8.03 0-3.54 2.34-5.31 5.56-5.31 2.41 0 4.05.7 5.82 2.46 1.65 1.65 2.78 5.37 3.92 8.41.19.5.38.63 1.83.63s1.71-.13 1.71-.63V13.44c0-1.26-.13-1.39-1.39-1.64-2.84-.57-5.31-.76-7.9-.76-15.49 0-24.78 5.56-24.78 14.29 0 7.52 3.86 12.01 15.05 16.06 6.95 2.53 8.28 4.87 8.28 8.28 0 3.54-2.21 5.88-6.77 5.88-3.03 0-4.87-1.14-6.64-2.91-2.02-2.02-4.49-7.65-6.13-12.01-.19-.5-.38-.63-1.83-.63s-1.64.13-1.71.63c-.25 1.52-.88 10.05-.88 14.03 0 1.26.13 1.46 1.39 1.77 4.55 1.2 9.48 1.89 15.36 1.89 13.47 0 21.62-6.64 21.62-15.8 0-6.7-4.11-11.19-15.11-15.36zM82.82 49.98c-.13 0-.19.06-.38.19-1.71 1.14-2.72 1.01-2.72-4.04V34.49c0-6.13-4.04-9.54-12.64-9.54-9.67 0-17.52 6.2-17.52 10.24 0 2.34 1.77 3.54 3.73 3.54 3.54 0 6.2-2.15 6.83-6.7l.44-3.04c.13-.82.38-1.01 1.01-1.01 2.41 0 3.79 2.79 3.79 7.33v2.02c-6 1.33-10.75 2.72-13.72 4.3-3.29 1.77-4.49 3.98-4.49 7.84 0 4.93 3.35 8.85 8.22 8.85 4.62 0 8.47-2.97 10.49-8.03 1.58 5.5 4.24 8.03 7.97 8.03 3.1 0 5.82-1.58 9.61-5.37l.25-.25c.38-.38.63-.63.63-.95.02-.38-.93-1.77-1.5-1.77zm-19.64.57-4.42-5.48 4.42-5.48 4.42 5.48-4.42 5.48z"/><path d="m127.77 55.04-2.15-.44c-.63-.13-.76-.25-.76-.88V38.67c0-7.78.5-12.08.5-13.15 0-.44-1.2-.95-1.64-.95-.19 0-.32.06-.5.19-.32.19-.63.44-.95.63l-19.78.06v-8.6c0-4.05 1.51-5.95 4.36-5.95 1.71 0 2.66.95 3.86 2.85l2.4 3.73c1.64 2.59 3.54 3.48 5.62 3.48 2.91 0 5.44-1.96 5.44-4.8 0-4.04-4.17-7.52-12.14-7.52-11.76 0-24.15 6.45-24.15 16.88v.19l-4.04.38c-.38.06-.51.25-.51 1.39 0 1.08.06 1.26.51 1.33l3.29.32c.7.07.76.19.76.82v23.84c0 .63-.13.7-.76.82l-2.15.44c-.38.06-.5.25-.5 1.39s.13 1.33.5 1.33c1.46 0 5.63-.44 10.24-.44s8.72.44 10.18.44c.38 0 .5-.19.5-1.33 0-1.14-.13-1.33-.5-1.39l-2.15-.44c-.63-.13-.76-.19-.76-.82V29.25c1.51.06 4.55.06 7.78.06v24.4c0 .63-.13.76-.76.88l-2.15.44c-.38.06-.5.25-.5 1.39s.13 1.33.5 1.33c1.39 0 5.63-.44 10.24-.44 4.62 0 8.73.44 10.18.44.38 0 .5-.19.5-1.33 0-1.13-.13-1.32-.51-1.38zM157.04 24.95c-3.86 0-7.4 4.68-9.29 10.81 0-4.11.25-9.23.25-10.24 0-.44-1.2-.95-1.65-.95-.19 0-.31.06-.5.19-5.06 3.6-9.99 6.7-15.17 8.73-.38.13-.5.25-.5 1.2 0 1.01.13 1.14.5 1.2l2.15.38c.63.13.76.19.76.82v16.69c0 .63-.13.7-.76.82l-2.15.44c-.38.06-.5.19-.5 1.39s.13 1.33.5 1.33c1.46 0 5.63-.44 10.24-.44 6.51 0 10.62.44 12.08.44.38 0 .5-.19.5-1.33 0-1.14-.13-1.33-.5-1.39l-4.05-.44c-.63-.06-.76-.19-.76-.82V37.46c.13-.13.5-.19.82-.19.82 0 2.09.57 3.61 1.65 1.39.95 2.34 1.33 3.47 1.33 2.97 0 6.45-2.97 6.45-8.98 0-3.48-1.7-6.32-5.5-6.32zM196.49 37.65c.38 0 .63-.19.7-.44.13-.44.13-1.08.13-1.64 0-6.07-5.12-10.62-14.54-10.62-11.25 0-18.9 6.76-18.9 16.94 0 9.99 7.27 16.44 16.69 16.44 6.83 0 13.97-4.3 16.57-10.75.25-.63-1.33-1.83-1.9-1.33-1.71 1.52-3.54 2.59-6.13 2.59-2.28 0-3.98-.63-6.38-3.04-1.77-1.77-3.48-4.8-4.43-7.96 5.99.19 13.2.07 18.19-.19zm-17.75-2.25-3.35-4.16 3.35-4.16 3.35 4.16-3.35 4.16z"/><text transform="translate(207.042 39.16)"><tspan x="0" y="0" class="st0 st1">Brazilian</tspan><tspan x="0" y="12.79" class="st0 st1">jewelry</tspan></text></svg>